<svg xmlns="http://www.w3.org/2000/svg" version="1.0" preserveAspectRatio="xMidYMid meet" viewBox="232.07 230.72 558.84 563.21">
<g transform="translate(0.000000,1024.000000) scale(0.100000,-0.100000)" fill="#FFFFFF" stroke="none">
<path d="M5000 7928 c-218 -9 -483 -51 -625 -100 -16 -5 -41 -12 -55 -15 -22 -4 -98 -31 -155 -54 -11 -4 -45 -18 -75 -29 -62 -24 -118 -48 -140 -60 -8 -5 -40 -21 -70 -37 -195 -99 -421 -255 -640 -439 -366 -310 -673 -796 -814 -1289 -88 -308 -124 -696 -96 -1010 64 -701 339 -1287 831 -1772 458 -452 1053 -732 1713 -809 381 -45 839 26 1256 193 364 146 662 340 942 614 131 129 174 178 243 273 11 15 43 58 71 94 130 169 321 546 387 762 159 525 179 1050 58 1545 -177 723 -588 1294 -1222 1700 -178 114 -472 256 -619 301 -30 9 -75 22 -100 30 -25 8 -55 14 -68 14 -13 0 -33 5 -45 12 -12 6 -56 17 -97 25 -318 55 -418 63 -680 51z m-434 -633 c72 -20 168 -88 220 -154 65 -82 86 -146 90 -266 5 -132 9 -156 43 -201 42 -58 121 -98 196 -97 72 0 120 19 167 65 60 60 72 98 72 229 1 111 2 118 36 185 174 346 673 340 846 -12 36 -71 39 -85 42 -178 4 -123 -14 -183 -87 -290 -27 -40 -54 -90 -60 -112 -42 -152 53 -311 202 -339 60 -12 130 12 210 70 90 65 118 80 185 94 245 52 488 -94 548 -328 11 -43 15 -93 12 -155 -3 -81 -7 -100 -40 -169 -44 -92 -127 -180 -202 -217 -33 -15 -85 -27 -158 -36 -139 -16 -187 -44 -235 -138 -51 -100 -40 -210 28 -296 51 -65 109 -91 221 -101 66 -5 103 -14 146 -35 76 -37 162 -125 203 -211 33 -65 34 -72 34 -188 0 -118 -1 -121 -37 -198 -45 -93 -136 -190 -213 -227 -113 -55 -278 -55 -388 -1 -34 17 -90 51 -124 75 -73 52 -127 64 -203 46 -104 -25 -185 -122 -197 -234 -7 -67 13 -129 61 -195 81 -110 112 -222 95 -344 -10 -78 -66 -190 -125 -254 -174 -188 -476 -203 -658 -34 -105 99 -146 195 -146 341 0 102 -15 142 -72 197 -104 100 -288 80 -362 -41 -27 -43 -31 -59 -37 -163 -6 -106 -10 -121 -45 -192 -115 -234 -375 -324 -614 -213 -73 34 -188 149 -223 223 -38 80 -51 172 -38 256 16 100 28 135 62 184 87 126 84 119 87 196 4 63 1 81 -22 127 -36 72 -91 121 -162 142 -93 27 -154 10 -265 -75 -88 -67 -229 -101 -335 -82 -178 33 -321 169 -369 352 -42 157 11 341 130 446 79 69 141 95 253 104 79 7 104 13 141 36 93 58 144 177 121 286 -26 129 -117 201 -265 213 -135 10 -238 71 -315 186 -74 111 -95 231 -66 379 24 128 110 230 250 299 64 32 96 42 156 46 132 11 219 -17 336 -106 76 -58 121 -74 186 -67 131 16 228 129 228 267 0 62 -14 101 -68 184 -85 131 -109 247 -78 379 23 96 55 154 124 220 133 126 305 170 478 122z m-824 -76 c32 -42 16 -69 -98 -169 -80 -70 -110 -90 -133 -90 -38 0 -71 40 -71 86 0 29 9 40 68 88 37 30 83 68 102 85 45 40 103 40 132 0z m3163 -275 c22 -9 144 -161 151 -189 8 -32 -20 -81 -50 -89 -42 -10 -73 10 -140 96 -76 96 -84 132 -40 167 27 22 50 26 79 15z m779 -1375 c23 -18 26 -27 26 -88 0 -72 -10 -91 -57 -105 -26 -8 -78 16 -87 39 -3 9 -6 43 -6 75 0 48 4 63 22 80 28 26 68 26 102 -1z m-4550 -1810 c15 -12 72 -77 127 -145 97 -120 109 -146 93 -189 -9 -23 -62 -48 -89 -41 -25 6 -194 208 -234 280 -24 42 -24 44 -7 70 16 25 46 44 72 45 6 1 23 -9 38 -20z"></path><path d="M4425 6349 c-53 -12 -113 -62 -136 -113 -18 -39 -19 -93 -19 -1150 0 -813 3 -1119 12 -1147 14 -49 67 -111 112 -133 45 -21 131 -20 181 3 45 20 63 32 530 336 187 122 371 241 410 266 38 24 131 85 207 134 76 50 191 124 255 165 231 148 348 228 370 251 31 34 53 91 53 136 0 52 -41 135 -81 166 -35 26 -330 209 -639 397 -96 58 -201 122 -232 143 -141 90 -818 507 -854 525 -49 25 -117 34 -169 21z">
</path>
</g>
</svg>